<?xml version="1.0" encoding="UTF-8"?>
<svg version="1.1" viewBox="0 0 1024 1024" width="1024" height="1024" xmlns="http://www.w3.org/2000/svg">
<path transform="translate(0)" d="m0 0h1024v1024h-1024z" fill="#F6F6F6"/>
<path transform="translate(0)" d="m0 0h1024v1024h-1024zm134 127v29l-21-1-1 1v740l1 1h770v-26h25v-447l-7 6v434h-18v-708l-2-1-739 1v-22l758 1 1 237 7-6v-239z" fill="#F6F6F6"/>
<path transform="translate(134,127)" d="m0 0h774v239l-7 6-1-237-758-1v22l740-1 1 1v708h18v-434l7-6v447h-25v26h-770l-1-1v-740l2-1 20 1zm8 32v705h737v-705z" fill="#0F0F0F"/>
<path transform="translate(133,159)" d="m0 0h1v712h745v22h-763v-733z" fill="#F6F6F6"/>
<path transform="translate(306,368)" d="m0 0h32l13 3 8 6 7 8 4 11 2 11v228l-1 1h-33l1-95h-33l-1 95h-33v-233l3-12 5-10 9-8 12-4z" fill="#151515"/>
<path transform="translate(700,367)" d="m0 0h18l16 3 10 5 6 8 5 12 2 15v40l-1 1h-32l-1-44-2-4-4-2h-17l-6 3-2 6v152l1 37 5 5h19l5-4 1-4v-18l1-15 2-1h30l1 2v34l-4 18-4 8-8 7-11 4-17 2h-12l-17-2-14-6-7-9-4-11-1-6v-203l3-12 6-10 8-6 9-3z" fill="#151515"/>
<path transform="translate(436,368)" d="m0 0h31l1 1v235h38l2 1v30l-1 1h-71l-1-1v-266z" fill="#141414"/>
<path transform="translate(564,368)" d="m0 0h31l1 1v266l-1 1h-31l-1-1v-266z" fill="#151515"/>
<path transform="translate(518,248)" d="m0 0 14 1 10 4v2l-13-3h-18l-15 5-6 3h-2l1 6v4l-3-2-1-3-6 1-9 5h-2v3l-5 1v2h9l2 4 7-4 5-3 1-2 7-1 10-5 16-6h10l14 2 10 3 2 3-8-1-8-3-6-1h-10l-2 10h20l15 3 9 4v2l-16-4-10-2-12-1-1 6h2l2 4h13l16 3 16 5 1 3-14-3-13-4-4-1h-14l2 9 21 1 22 6 6 3v2l-9-2-13-4-1-1-12-2-13-1-1 5-5 5-4 2-8-1-2-1-10 5h-2v-2l11-6h2l1-4 3-3 3-1h7l-2-9-13 5-17 8-13 8-10 4h-23l3 6 1 4-4 3h-12l-4-6-3-6-5-1 1 6-4-2-10-19-12-22-5-9v-2l5 2v2l7 1 1-4 4 4 7 1-7-13v-2l4 1 6 9 2 4 11 2h19l9-4h2l-2-5h-8l-1-3 12-6 8 1 2 1v3l9-2 12-6 9-3z" fill="#050505"/>
<path transform="translate(134,127)" d="m0 0h128l2 2h-128v27l-1 1h-21v738h767v-24l1-1h25v-444h1v445h-25v26h-770l-1-1v-740l2-1 20 1z" fill="#080808"/>
<path transform="translate(315,400)" d="m0 0h14l7 3 2 4 1 8v95h-34v-98l3-9z" fill="#F6F6F6"/>
<path transform="translate(134,127)" d="m0 0h128l2 2h-128v27l-1 1h-21v738l-2 1v-740l2-1 20 1z" fill="#0B0B0B"/>
<path transform="translate(881,155)" d="m0 0 2 2-1 707h-1v-707h-740v-1z"/>
<path transform="translate(520,260)" d="m0 0h10l14 2 10 3 2 3-8-1-8-3-6-1h-10l-2 10h20l15 3 9 4v2l-16-4-10-2-12-1-1 6h2l2 4h13l16 3 16 5 1 3-14-3-13-4-4-1h-14l2 9 21 1 22 6 6 3v2l-9-2-13-4-1-1-12-2-13-1-1 5-5 5-4 2-8-1-2-1-10 5h-2v-2l11-6h2l1-4 3-3 3-1h7l-2-9-13 5-17 8-13 8-10 4h-23l3 6 1 4-4 3h-2l2-4-4-7-4 2h-3l-1-3-3-2h9l-5-9 1-4h13l8 1v1h-18l4 8 3 2h20l-3-13 4-1v4l7-2 3 1 1 4 7-2 17-9 8-4h2v-4h9v-3l-8 2-3-4v-2l-8 3-4 2v-3l16-8-1-1-7-1-1-5-5 1 1-2z" fill="#050505"/>
<path transform="translate(358,127)" d="m0 0h550v238h-1l-1-236h-551z" fill="#070707"/>
<path transform="translate(518,248)" d="m0 0 14 1 10 4v2l-13-3h-18l-15 5-6 3h-2l1 6v4l-3-2-1-3-6 1-9 5h-2v3l-5 1v2h7v6l-4 2-2-3-5-2-1-4h-28l3 5 1 4h2v2l10 1-1 2-7 1-1 2h-3v-2l-7 2-1 2h-3l-4-6-5-1 4 9 5 2-2 3 4 8v2h6v2h-3l1 6-4-2-10-19-12-22-5-9v-2l5 2v2l7 1 1-4 4 4 7 1-7-13v-2l4 1 6 9 2 4 11 2h19l9-4h2l-2-5h-8l-1-3 12-6 8 1 2 1v3l9-2 12-6 9-3z" fill="#0E0E0E"/>
<path transform="translate(414,288)" d="m0 0h5l4 5v2h3l1-3 7-1 1 2 2-2v-1l19-1 9-1 2 6 2 1v4l-7 2-20-1 1 6 3 5v2l-6 1 1 4 7-3 3 5v2l2 1-3 4h-10l-4-6-3-6-2-1v-2h-6l-5-11 2-2-5-2z" fill="#0F0F0F"/>
<path transform="translate(508,266)" d="m0 0h3l1 5h7l2 2-6 4-17 8-14 8-5 1-1-5-6 2h-4l2-5 14-7 14-8z" fill="#F6F6F6"/>
<path transform="translate(511,689)" d="m0 0h12l5 3 2 5v14l-3 5-4 2h-12l-1-21z" fill="#070707"/>
<path transform="translate(315,689)" d="m0 0h9l5 4 1 2v17l-4 5-6 2-7-3-3-4v-16l3-5z" fill="#090909"/>
<path transform="translate(440,689)" d="m0 0h14l4 3v23l-4 3h-14z" fill="#121212"/>
<path transform="translate(512,279)" d="m0 0h4l3 5 2-1h6v3l-7 1-2-1v4l-12 6-17 9h-5l-1-4-9 1v-3l6-2 8-5z" fill="#F6F6F6"/>
<path transform="translate(520,260)" d="m0 0h10l14 2 10 3 2 3-8-1-8-3-6-1h-10l-2 10h20l15 3 9 4v2l-16-4-10-2-12-1-1 3h-3v3l-12-1-8 4v-3l16-8-1-1-7-1-1-5-5 1 1-2z" fill="#343434"/>
<path transform="translate(518,248)" d="m0 0 14 1 10 4v2l-13-3h-18l-15 5-6 3h-2l1 6v4l-3-2-1-3-6 1-9 5h-2v3l-3-1 1-2 2-3-2-4h-8l-1-3 12-6 8 1 2 1v3l9-2 12-6 9-3z" fill="#040404"/>
<path transform="translate(583,688)" d="m0 0 3 1v29h-5l-11-18-1 18h-4v-29l5 1 10 16v2h2v-19z" fill="#141414"/>
<path transform="translate(340,688)" d="m0 0 5 2 10 17 1-18h4v29l-5-1-6-9-5-8v18h-4l-1-29z" fill="#0C0C0C"/>
<path transform="translate(530,294)" d="m0 0 3 1 1 2 21 1 22 6 6 3v2l-9-2-13-4-1-1-12-2-13-1-1 5-5 5-4 2-8-1-2-1-10 5h-2v-2l11-6h2l1-4 3-3 3-1h7z" fill="#040404"/>
<path transform="translate(458,275)" d="m0 0h1l1 5 4 1-1 6-4 1h-17l-6-1v-2h-2l-3-5-1-4z" fill="#F6F6F6"/>
<path transform="translate(865,127)" d="m0 0h43v238h-1l-1-236h-42z"/>
<path transform="translate(134,127)" d="m0 0h128l2 2h-128v27l-4 1 2-1z" fill="#040404"/>
<path transform="translate(463,288)" d="m0 0h2l2 6 2 1v4l-7 2-20-1-5-10 19-1z" fill="#F6F6F6"/>
<path transform="translate(660,689)" d="m0 0h4l8 26v3h-4l-2-6-9-1-2 7h-4l1-6z" fill="#090909"/>
<path transform="translate(474,296)" d="m0 0m-1 1m-3 1h3v4l3 1-1 6 8-2v4l-8 3h-23l3 6 1 4-4 3h-2l2-4-4-7-4 2h-3l-1-3-3-2h9l-5-9 1-4h13l8 1v1h-18l4 8 3 2h20l-3-13z" fill="#050505"/>
<path transform="translate(375,689)" d="m0 0h10l3 2-1 4-5-2-6 1-1 2v15l2 3h5l2-2 1-6h-5v-4h8l1 1v9l-3 5-7 2-7-3-2-3v-19z" fill="#070707"/>
<path transform="translate(539,689)" d="m0 0h17v4h-12l-1 8h9l1 4-1 1h-9v8h13v4h-17z" fill="#0B0B0B"/>
<path transform="translate(467,301)" d="m0 0 4 1 1 10-7 1h-13l-5-4-2-4v-3z" fill="#F6F6F6"/>
<path transform="translate(407,688)" d="m0 0 7 2 1 4-3 1-3-2-7 1 2 6 8 3 3 4v6l-5 5h-9l-5-4 1-3 5 2 5 1 3-3-1-4-9-3-3-5 1-6 4-4z" fill="#0C0C0C"/>
<path transform="translate(617,688)" d="m0 0 8 1 2 2v3l-3 1-3-2-5 1-1 4 1 2 9 3 2 2v9l-5 4h-8l-4-2-1-4 2-1 5 3 5-1 1-5-9-4-3-4 1-8z" fill="#090909"/>
<path transform="translate(440,689)" d="m0 0h14l4 3v22h-1l-1-12v-9l-4-1h-7v10l7-1 3-2-2 4-2 1h-6v11l8-2 2-1-1 3-1 1 2 1-1 1h-14z" fill="#090909"/>
<path transform="translate(292,688)" d="m0 0 8 2 1 4-9-1-3 3 1 4 9 3 3 5-2 7-4 3h-9l-4-3v-3l5 1 6 1 2-2-1-5-9-4-2-3 1-8 4-3z" fill="#151515"/>
<path transform="translate(319,692)" d="m0 0 5 2 2 6v9l-3 5-5 1-3-3v-16z" fill="#F6F6F6"/>
<path transform="translate(515,692)" d="m0 0 7 1 3 3v15l-3 3h-7z" fill="#F6F6F6"/>
<path transform="translate(731,688)" d="m0 0 6 2 2 1-2 4-7-2-4 4v13l2 4 10-1-1 4-7 2-7-3-2-4-1-8 1-9 2-4z" fill="#0A0A0A"/>
<path transform="translate(520,273)" d="m0 0h22l15 3 9 4v2l-16-4-10-2-12-1-1 3h-3v3l-12-1-8 4v-3z" fill="#353535"/>
<path transform="translate(467,689)" d="m0 0 5 1 3 8v3h2l1-6 3-6h4l-1 5-5 12-1 12h-4l-1-13-6-14z" fill="#0B0B0B"/>
<path transform="translate(681,689)" d="m0 0h4l1 24 12 1v4h-16l-1-1z" fill="#050505"/>
<path transform="translate(707,689)" d="m0 0h5v27l-1 2h-4z" fill="#0D0D0D"/>
<path transform="translate(518,248)" d="m0 0 14 1 10 4v2l-13-3h-18l-15 5-6 3h-2l-1 2-1-3 14-7 9-3z" fill="#090909"/>
<path transform="translate(583,688)" d="m0 0 3 1v29h-5l-10-16 1-3 10 17 2 1-1-8h-1v-20z" fill="#070707"/>
<path transform="translate(375,689)" d="m0 0 9 1 3 3-10-1-3 3v17l2 5h7l-4 2-7-3-2-3v-19z" fill="#0D0D0D"/>
<path transform="translate(292,688)" d="m0 0 8 2 1 4-9-1-3 3 1 4 9 3 3 5-2 4-2-7-9-3-2-3 1-6 2-2-3 2v8l7 3v1l-7-1-3-4 1-8 4-3z" fill="#050505"/>
<path transform="translate(474,296)" d="m0 0m-1 1m-3 1h3v4l3 1-1 6 8-2v4l-8 3h-23v-1l20-1-3-13z" fill="#020202"/>
<path transform="translate(535,285)" d="m0 0h9l16 3 16 5 1 3-14-3-13-4-4-1-13-1z" fill="#070707"/>
<path transform="translate(530,297)" d="m0 0 1 4-4 1v-2h-5l1 4-2 2 1 2-2 2-5-1-10 5h-2v-2l11-6h2l1-4 3-3z" fill="#040404"/>
<path transform="translate(398,693)" d="m0 0h1l1 8 7 3 4 2 1 6v3l-2 3h-9l-5-4 1-3 5 2 5 1 3-3-1-4-9-3-3-5z" fill="#080808"/>
<path transform="translate(439,302)" d="m0 0h2l5 9v2h-10l-4-6v-2z" fill="#F6F6F6"/>
<path transform="translate(479,300)" d="m0 0 4 1 1 4 10-2v2l-10 5-2-2-7 2-1-4 3-5z" fill="#040404"/>
<path transform="translate(468,268)" d="m0 0m-2 1 2 1-5 5v2h7v6l-4 2-2-3-5-2-1-4h-6l1-2 11-4z" fill="#2D2D2D"/>
<path transform="translate(405,272)" d="m0 0h6l4 5 3 9-7-1-6-11z" fill="#F6F6F6"/>
<path transform="translate(445,704)" d="m0 0 8 1 1 1v7l-3 2h-6z" fill="#F6F6F6"/>
<path transform="translate(596,689)" d="m0 0h4v29l-4-1z" fill="#070707"/>
<path transform="translate(664,696)" d="m0 0h2l6 19v3h-4l-2-6-9-1-2 7h-4l1-6 2-2-1 6 1 1 1-6 2-3h8l4 5v4l1-1z" fill="#030303"/>
<path transform="translate(522,260)" d="m0 0 17 1 15 4 2 3-8-1-8-3-6-1h-10l-4 4 1-6z" fill="#060606"/>
<path transform="translate(445,692)" d="m0 0h7l2 2v6l-2 2h-7z" fill="#F6F6F6"/>
<path transform="translate(528,273)" d="m0 0h14l15 3 9 4v2l-16-4-14-3-8-1z" fill="#050505"/>
<path transform="translate(504,266)" d="m0 0h2v2l-21 11-5 3-3-1 7-6 3-3 7-1z" fill="#030303"/>
<path transform="translate(421,300)" d="m0 0 6 1 1 4 3 3 1 5-7-1-5-11z" fill="#F6F6F6"/>
<path transform="translate(430,291)" d="m0 0h4l4 6v3h-8l-4-4 1-4z" fill="#F6F6F6"/>
<path transform="translate(418,278)" d="m0 0 4 1 8 3 2 6h-7l-3-1-4-7z" fill="#F6F6F6"/>
<path transform="translate(512,690)" d="m0 0h10l1 2-9-1v24h8v2h-10z" fill="#171717"/>
<path transform="translate(447,315)" d="m0 0 3 3 2 5-3 2h-6l-3-4v-2z" fill="#F6F6F6"/>
<path transform="translate(565,689)" d="m0 0 5 1 2 5-4-4v27h-3z" fill="#090909"/>
<path transform="translate(522,300)" d="m0 0h5v2l3 1 1 3-7 4-5-1 3-1-3-3 2-2z" fill="#151515"/>
<path transform="translate(414,288)" d="m0 0h5l4 5 2 6-7-1-4-8z" fill="#F6F6F6"/>
<path transform="translate(399,695)" d="m0 0 2 3 3 4h7l4 5v6l-3 3-2-2 1-6-1-2-9-3-2-2z" fill="#101010"/>
<path transform="translate(721,703)" d="m0 0h1l2 11 4 1 6-2h4l-1 4-7 2-7-3-2-4-1-8z" fill="#060606"/>
<path transform="translate(297,711)" d="m0 0v3l3-1-2 4-2 1h-9l-4-3v-3l5 1 6 1z" fill="#070707"/>
<path transform="translate(436,292)" d="m0 0 3 1 3 6v3l-5 2-7-1v-3h8l-2-4z" fill="#181818"/>
<path transform="translate(724,694)" d="m0 0 1 2v9l3 11-4-1-2-7-1-11h2z" fill="#121212"/>
<path transform="translate(516,290)" d="m0 0 3 1-4 3-17 8-4 2-2-2 16-8z" fill="#0A0A0A"/>
<path transform="translate(623,710)" d="m0 0 1 3-3 3 4-2-1 3-2 1h-8l-4-2-1-4 2-1 5 3 5-1z" fill="#070707"/>
<path transform="translate(462,260)" d="m0 0 5 2 3 3h3l1 4-6 2v3l-3-1 1-2 2-3-3-5-4-2z" fill="#020202"/>
<path transform="translate(683,690)" d="m0 0h1l1 23 2 2h10v2h-14z" fill="#171717"/>
<path transform="translate(661,698)" d="m0 0h2l2 10h-7z" fill="#F6F6F6"/>
<path transform="translate(617,703)" d="m0 0 7 1 2 2 1 8-6 3h-5l4-2 3-2v-6l-6-3z" fill="#161616"/>
<path transform="translate(415,257)" d="m0 0 4 1 5 8-1 2h-3l-5-9z" fill="#060606"/>
<path transform="translate(481,260)" d="m0 0h6l3 9h-3l-2-4-4-2z" fill="#030303"/>
<path transform="translate(526,698)" d="m0 0h1l1 15-2 4-4-2v-2h2z" fill="#0D0D0D"/>
<path transform="translate(471,698)" d="m0 0 3 4 3 10 1 6h-4l-1-13-2-4z" fill="#080808"/>
<path transform="translate(569,302)" d="m0 0 11 3 3 2v2l-9-2-6-2z" fill="#090909"/>
<path transform="translate(468,258)" d="m0 0 1 2 3-1 2 5 1 2-4-1-1 2-4-5-3-2z" fill="#151515"/>
<path transform="translate(664,697)" d="m0 0 2 2 5 18h-2l-2-6-6-1 4-2z" fill="#171717"/>
<path transform="translate(555,299)" d="m0 0 8 1 7 3v1l-9-1-1-1-7-1z" fill="#050505"/>
<path transform="translate(473,293)" d="m0 0h3l-2 4-4 1 1-4zm-4 5m-2 1 3 1-3 2-5-1v-1z" fill="#797979"/>
<path transform="translate(522,260)" d="m0 0h8l6 1v1l-12 1-4 4 1-6z" fill="#040404"/>
<path transform="translate(312,696)" d="m0 0h1l1 12 2 4 1 4-4-2-1-1z" fill="#141414"/>
<path transform="translate(661,690)" d="m0 0h2l1 7h-3l-3 7-1-3z" fill="#171717"/>
<path transform="translate(476,304)" d="m0 0h5v4l-6 2-1-4z" fill="#F6F6F6"/>
<path transform="translate(408,689)" d="m0 0 6 1 1 4-3 1-3-2h-6l1-2z" fill="#060606"/>
<path transform="translate(315,689)" d="m0 0 6 1v2l-6 1-1 3h-2l2-6z" fill="#111"/>
<path transform="translate(504,266)" d="m0 0h2v2l-13 6-1-2z" fill="#080808"/>
<path transform="translate(529,249)" d="m0 0 9 2 4 2v2l-11-3v-2z" fill="#080808"/>
<path transform="translate(482,690)" d="m0 0 1 3-4 9-4-1h2l1-6 3-3z" fill="#101010"/>
</svg>
